<?xml version="1.0" standalone="no"?>
<!DOCTYPE svg PUBLIC "-//W3C//DTD SVG 20010904//EN"
 "http://www.w3.org/TR/2001/REC-SVG-20010904/DTD/svg10.dtd">
<svg version="1.0" xmlns="http://www.w3.org/2000/svg"
 width="150.000000pt" height="150.000000pt" viewBox="0 0 150.000000 150.000000"
 preserveAspectRatio="xMidYMid meet">

<g transform="translate(0.000000,150.000000) scale(0.100000,-0.100000)"
fill="#000000" stroke="none">
<path d="M220 1458 c-74 -29 -150 -105 -178 -181 -21 -56 -22 -71 -22 -527 0
-456 1 -471 22 -527 29 -78 103 -152 182 -182 58 -21 66 -22 545 -19 485 3
486 3 529 26 63 33 114 84 148 144 l29 53 3 486 c3 479 2 487 -19 545 -30 79
-104 153 -182 182 -56 21 -70 22 -530 21 -455 0 -474 -1 -527 -21z m683 -271
c151 -69 195 -255 87 -368 l-37 -39 37 -24 c57 -37 90 -112 90 -200 -1 -118
-44 -185 -149 -235 -54 -25 -62 -26 -283 -29 l-228 -3 0 461 0 462 223 -4
c183 -3 229 -7 260 -21z"/>
<path d="M580 960 l0 -110 105 0 c156 0 195 22 195 110 0 88 -39 110 -195 110
l-105 0 0 -110z"/>
<path d="M580 571 l0 -141 104 0 c132 0 161 6 197 42 26 26 29 37 29 89 0 70
-17 110 -57 129 -17 8 -75 15 -150 18 l-123 4 0 -141z"/>
</g>
</svg>
