<?xml version="1.0" standalone="no"?>
<!DOCTYPE svg PUBLIC "-//W3C//DTD SVG 20010904//EN"
 "http://www.w3.org/TR/2001/REC-SVG-20010904/DTD/svg10.dtd">
<svg version="1.0" xmlns="http://www.w3.org/2000/svg"
 width="59.000000pt" height="59.000000pt" viewBox="0 0 59.000000 59.000000"
 preserveAspectRatio="xMidYMid meet">

<g transform="translate(0.000000,59.000000) scale(0.100000,-0.100000)"
fill="#000000" stroke="none">
<path d="M242 567 c-12 -13 -22 -34 -22 -48 0 -19 -8 -28 -35 -37 -30 -12 -36
-11 -55 8 -30 30 -83 27 -109 -6 -28 -35 -26 -67 3 -101 18 -20 34 -28 57 -28
26 0 37 -6 48 -27 13 -23 13 -30 1 -52 -11 -21 -21 -26 -51 -26 -70 0 -103
-77 -54 -125 28 -29 70 -32 102 -10 20 14 25 14 57 -2 28 -13 36 -23 36 -43 0
-33 38 -70 72 -70 14 0 38 10 53 22 24 19 27 26 22 64 -4 40 -2 45 44 90 45
44 52 48 93 45 37 -2 47 2 65 25 27 34 27 64 0 98 -18 23 -28 27 -63 24 -37
-3 -47 2 -93 41 -51 43 -52 43 -46 90 5 43 3 50 -22 69 -36 29 -76 28 -103 -1z
m-7 -107 c7 -11 -25 -70 -38 -70 -24 0 -45 21 -40 41 8 29 65 51 78 29z m208
-126 c-8 -21 -62 -18 -70 4 -20 56 -86 81 -125 45 -28 -25 -33 -8 -8 27 15 21
27 29 39 25 10 -3 29 -1 42 4 21 8 31 3 76 -41 29 -29 49 -56 46 -64z m-263
15 c-16 -29 -26 -30 -39 -3 -15 34 -6 46 24 32 19 -9 22 -14 15 -29z m40 -29
c0 -29 24 -63 50 -72 19 -6 19 -86 1 -93 -7 -3 -15 -4 -16 -3 -80 132 -86 147
-69 173 22 33 34 32 34 -5z m218 -49 c9 -27 6 -32 -41 -79 -46 -44 -55 -49
-74 -39 -18 8 -23 18 -23 48 0 32 5 41 29 53 16 9 31 22 34 31 4 9 19 15 36
15 23 0 31 -6 39 -29z m-238 -62 c30 -51 39 -74 31 -82 -16 -16 -83 17 -75 37
3 9 -1 29 -10 46 -12 25 -13 35 -3 51 6 10 12 19 13 19 1 0 21 -32 44 -71z"/>
</g>
</svg>
