<?xml version="1.0" encoding="utf-8"?>
<!-- Generator: Adobe Illustrator 23.0.5, SVG Export Plug-In . SVG Version: 6.00 Build 0)  -->
<svg version="1.1" id="Layer_1" xmlns="http://www.w3.org/2000/svg" xmlns:xlink="http://www.w3.org/1999/xlink" x="0px" y="0px"
	 viewBox="0 0 40 40" style="enable-background:new 0 0 40 40;" xml:space="preserve">
<style type="text/css">
	.st0{fill:#4C97FF;}
</style>
<g>
	<g>
		<path class="st0" d="M20.5,30.8l-5,4.9c-0.5,0.5-1.2,0.2-1.2-0.5v-2.4c0-0.1,0-0.2,0-0.3c0-1.5,0-2.9,0-4.4c0-0.1,0-0.3,0-0.5
			c0-1.4,0-1.8,0-2.3c0-0.6,0.8-0.9,1.3-0.5l5,5C20.8,30.1,20.8,30.5,20.5,30.8z"/>
		<path class="st0" d="M19.1,6L19.1,6c0,1.2-0.9,2.1-2,2.1h-6.2c-1.2,0-2.3,1-2.3,2.3v15.6c0,1.2,1,2.2,2.3,2.2h4.6
			c0.1,0,0.3,0,0.4,0v4.1c-0.1,0-0.2,0-0.4,0h-4.6c-3.5,0-6.3-2.8-6.3-6.3V10.3c0-0.8,0.1-1.5,0.4-2.2C5.8,5.8,8,4.1,10.7,4h6.4
			C18.2,4,19.1,4.9,19.1,6z"/>
	</g>
	<g>
		<path class="st0" d="M12.1,18.6L12.1,18.6c0,1.1,0.8,2,1.9,2h19.5c1.1,0,1.9-0.9,1.9-2l0,0c0-1.1-0.8-2-1.9-2H14
			C13,16.5,12.1,17.4,12.1,18.6z"/>
		<path class="st0" d="M12.1,12.4L12.1,12.4c0,1.1,0.8,2,1.9,2h19.5c1.1,0,1.9-0.9,1.9-2l0,0c0-1.1-0.8-2-1.9-2H14
			C13,10.4,12.1,11.3,12.1,12.4z"/>
		<path class="st0" d="M35.4,24.7L35.4,24.7c0-1.1-0.9-2.1-2-2H21.1c-1.1,0-2,0.9-2,2l0,0c0,1.1,0.9,2,2,2h12.3
			C34.6,26.7,35.4,25.8,35.4,24.7z"/>
	</g>
</g>
</svg>
